<?xml version="1.0" encoding="UTF-8" standalone="no"?>
<!DOCTYPE svg PUBLIC "-//W3C//DTD SVG 1.1//EN" "http://www.w3.org/Graphics/SVG/1.1/DTD/svg11.dtd">
<svg width="100%" height="100%" viewBox="0 0 1000 1000" version="1.1" xmlns="http://www.w3.org/2000/svg" xmlns:xlink="http://www.w3.org/1999/xlink" xml:space="preserve" xmlns:serif="http://www.serif.com/" style="fill-rule:evenodd;clip-rule:evenodd;stroke-linejoin:round;stroke-miterlimit:2;">
    <g transform="matrix(0.363177,0,0,0.363177,-38.8351,-9.50049)">
        <g transform="matrix(1,0,0,1,-275.517,117.92)">
            <circle cx="1757.43" cy="1392.74" r="1200.74" style="fill:rgb(181,175,171);"/>
            <path d="M1757.43,190.418C1425.52,190.112 1124.7,324.591 906.812,542.122C688.776,759.795 553.785,1060.62 553.538,1392.74C553.359,1725.04 688.051,2026.19 905.956,2244.22C1123.91,2462.28 1425.07,2597.14 1757.43,2597.14C2089.74,2597 2390.75,2462.01 2608.62,2243.93C2826.39,2025.93 2961.07,1724.92 2960.88,1392.74C2960.64,1060.73 2825.7,760.03 2607.76,542.416C2389.95,324.929 2089.24,190.442 1757.43,190.702L1757.43,190.418ZM1757.43,193.312C2088.32,193.571 2387.99,328.1 2604.87,545.305C2821.62,762.382 2955.69,1062.05 2955.46,1392.74C2955.27,1723.27 2820.93,2022.62 2604.01,2239.32C2387.18,2455.93 2087.83,2589.95 1757.43,2589.81C1427.09,2589.81 1127.88,2455.65 911.144,2239.03C694.358,2022.36 560.034,1723.15 559.855,1392.74C559.61,1062.16 693.632,762.617 910.289,545.599C1127.09,328.439 1426.64,193.901 1757.43,193.596L1757.43,193.312Z" style="fill:rgb(245,235,227);"/>
        </g>
        <g>
            <g>
                <g transform="matrix(2.75348,0,0,2.75348,106.931,26.1594)">
                    <path d="M153.898,805.16C186.424,758.964 243.14,744.625 312.16,722.915C376.62,702.639 433.595,687.232 433.595,687.232L506.366,663.774L506.349,658.282L579.315,676.335C579.315,676.335 589.362,682.705 614.232,693.842C635.219,703.241 666.948,715.924 710.219,732.172C767.363,753.629 815.953,770.365 846.907,802.442C767.26,907.383 641.171,975.217 499.363,975.217C358.782,975.217 233.649,908.552 153.898,805.16Z" style="fill:rgb(59,85,64);"/>
                </g>
                <g transform="matrix(2.70205,0,0,2.88696,-1345.87,-2425.05)">
                    <path d="M1004.97,1400.38C1004.97,1400.38 986.349,1496.64 969.172,1503.62C969.172,1503.62 1186.1,1515.38 1163.93,1502.95C1163.93,1502.95 1134.73,1441.55 1137.06,1399.16L1004.97,1400.38Z" style="fill:rgb(255,205,176);"/>
                </g>
                <g transform="matrix(2.75348,0,0,2.75348,106.931,26.1594)">
                    <path d="M452.376,608.266C447.054,632.073 438.925,663.615 430.467,678.398C457.471,685.759 520.54,691.76 593.419,622.221C591.541,614.154 589.997,605.908 589.057,597.862C574.307,596.527 552.477,595.933 522.741,598.484C491.332,601.178 469.288,603.507 452.376,608.266Z" style="fill:rgb(234,164,123);"/>
                </g>
                <path d="M1207.21,1944.98C1207.21,1944.98 1280.1,1912.26 1312.33,1815.85C1312.33,1815.85 1547.3,1946.93 1768.65,1814.93C1787.68,1864.74 1805.87,1916.94 1848.78,1961.59C1848.78,1961.59 1556.18,2153.9 1207.21,1944.98Z" style="fill:rgb(44,68,49);"/>
            </g>
            <g transform="matrix(1.29509,0,0,1.29509,-1364.05,-110.77)">
                <g transform="matrix(1.87878,-0.142768,0.13118,1.85534,152.124,-1007.61)">
                    <path d="M840.474,1075.91C840.474,1075.91 814.34,1071.26 796.024,1083.57C782.028,1092.97 765.689,1121.62 782.456,1160.76C797.947,1196.91 818.898,1246.45 860.04,1245.3L857.429,1116.94C857.429,1116.94 864.48,1084.16 840.474,1075.91Z" style="fill:rgb(250,190,156);"/>
                </g>
                <g transform="matrix(-1.87878,-0.142768,-0.13118,1.85534,4285.87,-1007.61)">
                    <path d="M840.474,1075.91C840.474,1075.91 814.34,1071.26 796.024,1083.57C782.028,1092.97 765.689,1121.62 782.456,1160.76C797.947,1196.91 818.898,1246.45 860.04,1245.3L857.429,1116.94C857.429,1116.94 864.48,1084.16 840.474,1075.91Z" style="fill:rgb(250,190,156);"/>
                </g>
                <g transform="matrix(2.07925,-0.447013,0.47892,2.34479,-411.788,-1325.2)">
                    <path d="M850.105,1115.9C850.105,1115.9 796.515,1103.23 799.612,1148.17C799.612,1148.17 800.403,1135.02 814.211,1129.96C814.211,1129.96 811.437,1185.3 842.165,1197.91C842.165,1197.91 818.666,1190.99 824.689,1128.78C824.689,1128.78 838.587,1123.53 854.932,1131.13L850.105,1115.9Z" style="fill:rgb(234,164,123);"/>
                </g>
                <g transform="matrix(-2.07925,-0.447013,-0.47892,2.34479,4849.79,-1325.2)">
                    <path d="M850.105,1115.9C850.105,1115.9 796.515,1103.23 799.612,1148.17C799.612,1148.17 800.403,1135.02 814.211,1129.96C814.211,1129.96 811.437,1185.3 842.165,1197.91C842.165,1197.91 818.666,1190.99 824.689,1128.78C824.689,1128.78 838.587,1123.53 854.932,1131.13L850.105,1115.9Z" style="fill:rgb(234,164,123);"/>
                </g>
                <path d="M1897.59,1149.54C1897.59,1149.54 1864.57,1147.64 1838.15,1173.07C1825.33,1185.4 1814.37,1204.12 1809.12,1232.28C1805.41,1254.01 1809.44,1275.17 1819.1,1293.43C1825.64,1305.78 1834.83,1316.78 1845.85,1325.6C1856.7,1334.28 1869.38,1340.85 1882.97,1344.7C1902.36,1350.18 1923.62,1350.23 1944.58,1343.18C1954.68,1339.64 1964.74,1334.56 1974.39,1327.42C1982.67,1321.3 1990.68,1313.81 1998.24,1304.69C2000.2,1302.57 2000.06,1299.27 1997.94,1297.31C1995.83,1295.36 1992.52,1295.49 1990.57,1297.61C1982.83,1305.15 1974.84,1311.15 1966.77,1315.94C1957.83,1321.25 1948.78,1324.84 1939.78,1327.04C1922.19,1331.6 1904.85,1330.07 1889.17,1324.75C1878.36,1321.08 1868.43,1315.39 1859.67,1308.35C1850.83,1301.25 1843.2,1292.76 1837.44,1283.11C1828.89,1268.79 1824.06,1252.2 1825.73,1234.48C1827.71,1209.35 1835.57,1192 1845.56,1179.95C1867.15,1153.91 1897.59,1152.15 1897.59,1152.15C1898.31,1152.15 1898.89,1151.57 1898.89,1150.85C1898.9,1150.13 1898.31,1149.54 1897.59,1149.54Z" style="fill:rgb(255,216,162);"/>
                <g transform="matrix(-1,0,0,1,4445.02,0)">
                    <path d="M1897.59,1152.15C1897.59,1152.15 1867.15,1153.91 1845.56,1179.95C1835.57,1192 1827.71,1209.35 1825.73,1234.48C1823.39,1258.18 1832.62,1279.83 1847.4,1296.66C1857.26,1307.89 1869.68,1316.98 1883.78,1322.72C1900.81,1329.64 1920.01,1331.98 1939.64,1327.08C1956.81,1322.79 1974.24,1313.6 1990.57,1297.61C1992.52,1295.49 1995.83,1295.36 1997.94,1297.31C2000.06,1299.27 2000.2,1302.57 1998.24,1304.69C1973.88,1333.77 1945.02,1346.78 1917.35,1348.54C1903.1,1349.44 1889.12,1347.2 1876.2,1342.51C1858.49,1336.1 1842.62,1325.05 1830.8,1310.84C1813.09,1289.52 1804.28,1261.36 1809.12,1232.28C1814.37,1204.12 1825.33,1185.4 1838.15,1173.07C1864.57,1147.64 1897.59,1149.54 1897.59,1149.54C1898.31,1149.54 1898.9,1150.13 1898.89,1150.85C1898.89,1151.57 1898.31,1152.15 1897.59,1152.15Z" style="fill:rgb(255,216,162);"/>
                </g>
                <path d="M2228.49,399.718C2243.04,400.126 2383.89,405.335 2470.88,455.758C2562.68,508.976 2613.28,595.868 2603.25,773.007C2603.25,773.007 2541.76,1200 2526,1271C2510.24,1342 2454.77,1384.31 2403.53,1414.74C2352.44,1445.07 2324.06,1490.12 2223.47,1486.96C2126.35,1483.91 2101.98,1443.32 2052.21,1413.77C2000.98,1383.35 1945.5,1341.04 1929.75,1270.04C1913.99,1199.03 1852.49,772.044 1852.49,772.044C1842.47,594.905 1893.06,508.014 1984.87,454.796C2076.67,401.578 2228.48,398.725 2228.48,398.725L2228.49,399.718Z" style="fill:rgb(255,205,176);"/>
                <g transform="matrix(-1,0,0,1,4426.1,3.49594)">
                    <g transform="matrix(1.21729,0.240916,-0.161121,0.81411,104.754,-136.217)">
                        <path d="M1837.34,940.699L1824.5,1029.57L1866.03,1050.78L1841.79,1018.13L1837.34,940.699Z" style="fill:rgb(234,164,123);"/>
                    </g>
                    <g transform="matrix(-0.991964,-0.126521,-0.126521,0.991964,4552.03,302.91)">
                        <path d="M2265.37,1137.2C2265.37,1137.2 2270.78,1142.21 2271.24,1149.87C2271.46,1153.59 2270.38,1157.9 2266.85,1162.65C2263.95,1166.67 2259.87,1168.72 2255.59,1169.49C2251.12,1170.3 2246.39,1169.56 2242.17,1167.61C2234.05,1163.87 2227.83,1155.71 2229.96,1143.95C2230.16,1143.1 2229.64,1142.24 2228.79,1142.04C2227.94,1141.83 2227.08,1142.35 2226.87,1143.2C2222.49,1157.37 2229.28,1168.57 2238.98,1173.95C2242.24,1175.75 2245.88,1176.85 2249.54,1177.14C2258.11,1177.83 2266.78,1174.28 2271.92,1166.03C2275.74,1159.6 2276.5,1154 2275.7,1149.35C2274.14,1140.35 2267.01,1135.17 2267.01,1135.17C2266.45,1134.72 2265.63,1134.8 2265.17,1135.36C2264.72,1135.92 2264.81,1136.75 2265.37,1137.2Z" style="fill:rgb(245,235,227);"/>
                    </g>
                </g>
                <g transform="matrix(2.55931,-0.059478,0.0581167,2.50074,-4469.22,-103.482)">
                    <g transform="matrix(0.285959,0.00651054,-0.00378267,0.174019,2200.62,312.252)">
                        <path d="M1608.32,1595.64C1608.32,1595.64 1580.8,1623.86 1522.46,1612.38C1482.06,1604.43 1450.46,1602.96 1427.5,1614.49C1427.5,1614.49 1407.72,1602.43 1377.42,1604.52C1347.12,1606.62 1290.97,1615.52 1245.09,1587.91L1272.85,1623.46C1272.85,1623.46 1324.08,1739.44 1416.64,1741.67C1509.2,1743.9 1552,1676.65 1569.83,1635.81C1569.83,1635.81 1583.08,1615.58 1608.32,1595.64Z" style="fill:rgb(207,110,86);"/>
                    </g>
                    <g transform="matrix(0.830275,0.0197474,-0.0192955,0.849723,2186.97,135.675)">
                        <path d="M451.688,533.058C460.026,537.211 515.261,562.526 572.104,535.013C572.756,534.784 573.313,534.564 573.776,534.367C574.157,534.175 574.548,533.983 574.947,533.791L574.918,533.841C574.639,533.981 574.259,534.161 573.776,534.367C566.206,538.17 562.245,541.772 562.245,541.772C556.111,550.142 541.385,563.93 509.506,563.504C477.628,563.079 459.961,539.345 459.961,539.345L451.688,533.058Z" style="fill:rgb(234,144,122);"/>
                    </g>
                </g>
                <path d="M2235.52,496.722C2235.52,496.722 2164.14,463.424 2105.28,499.418C2046.43,535.413 2013.91,598.387 1990.21,721.594C1966.76,843.498 1925.28,982.073 1881.37,1021.85C1837.46,1061.62 1827.1,1167.15 1886.81,1232.98C1941.28,1293.02 1941.58,1444.67 1873.39,1523.61C1842.87,1558.94 1814.09,1573.39 1751.02,1549.16C1751.02,1549.16 1885.27,1530.76 1761.46,1354.58C1682.29,1241.91 1652.13,1071.16 1676.61,929.572C1701.08,787.98 1734.85,604.155 1826.71,487.412C1918.57,370.669 2057.15,323.446 2173.04,340.831C2173.04,340.831 2266.25,326.697 2393.29,356.004C2520.33,385.31 2571.26,433.019 2623.91,499.49C2676.57,565.961 2720.34,682.187 2716.05,763.622C2711.77,845.058 2722.85,881.876 2744.08,929.059C2765.31,976.242 2774.38,1220.89 2710.19,1351.09C2646,1481.28 2635.31,1508.12 2684.9,1553.69C2684.9,1553.69 2602.24,1519.72 2591.34,1454.59C2580.81,1391.67 2590.47,1369.06 2636.03,1265.86C2672.95,1182.25 2678.52,1148.52 2669.64,1076.98C2669.64,1076.98 2664.5,1283.24 2538.44,1368.64C2477.87,1409.68 2431.74,1399.97 2431.74,1399.97C2431.74,1399.97 2523.89,1392.88 2572.43,1257.47C2622.19,1118.7 2619.97,1003.81 2617.79,940.33C2617.79,940.33 2590.9,926.281 2568.92,990.798C2575.81,910.402 2571.82,779.925 2564.13,746.457C2564.13,746.457 2458.87,587.886 2403.91,542.14C2336.49,486.022 2329.96,479.254 2235.52,496.722Z" style="fill:rgb(83,63,46);"/>
                <g transform="matrix(1.18051,0,0,1,-353.673,1.44588)">
                    <path d="M1874.55,487.658C1874.55,487.658 1878.62,402.715 1926.69,324.92C1974.76,247.126 1991.56,229.948 2036.66,205.167C2081.76,180.387 2088.92,145.214 2182.27,148.252C2275.61,151.291 2445.96,221.006 2415.7,413.395C2415.7,413.395 1973.03,414.146 1874.55,487.658Z" style="fill:rgb(83,63,46);"/>
                </g>
                <path d="M2698.91,765.719C2698.91,765.719 2702.96,870.617 2726.59,926.001C2750.22,981.385 2760.04,1076.46 2748.83,1180.88C2737.63,1285.31 2695.44,1351.91 2667,1399.63C2638.56,1447.34 2625.77,1502.79 2674.99,1541.81C2674.99,1541.81 2599.24,1506.21 2595.81,1433.54C2592.39,1360.87 2630.04,1305.34 2658.65,1232.36C2687.26,1159.37 2697.76,1102.88 2693.77,994.7C2689.78,886.515 2671.94,833.823 2698.91,765.719Z" style="fill:url(#_Linear1);"/>
                <path d="M2241.09,494.135C2241.09,494.135 2165.11,460.129 2106.07,501.617C2047.04,543.106 2011.63,609.605 1991.71,711.4C1966.09,842.286 1892.73,895.666 1847.19,949.216C1801.65,1002.77 1774,1095.43 1832.59,1180.45C1891.17,1265.47 1927.99,1298.16 1925.15,1384.71C1922.52,1464.85 1879.44,1515.72 1879.44,1515.72C1879.44,1515.72 1949.91,1421.18 1872.69,1330.78C1802.46,1248.56 1738.72,1191.2 1739.02,1097.61C1739.39,981.463 1761.01,927.575 1814.27,840.211C1867.53,752.847 1889.11,716.501 1908.22,627.24C1927.33,537.98 2021.83,375.83 2241.09,494.135Z" style="fill:url(#_Linear2);"/>
                <path d="M2213.41,452.344C2213.41,452.344 2112.28,421.699 2040.03,443.645C1967.77,465.591 1875.7,527.149 1853.66,618.235C1831.63,709.32 1789.58,809.278 1757.99,877.291C1726.4,945.303 1660.78,1069.97 1743.34,1219.38C1825.9,1368.79 1931.58,1535.73 1756.65,1552.64C1756.65,1552.64 1886.03,1520.02 1809.37,1410.87C1729.06,1296.52 1649.68,1202.74 1671.47,964.529C1678.04,892.712 1694.63,810.061 1709.74,745.678C1744.75,596.508 1797.21,488.625 1880.38,434.678C1999.46,357.448 2154.35,378.895 2213.41,452.344Z" style="fill:url(#_Linear3);"/>
                <path d="M2241.64,495.568C2241.64,495.568 2318.32,477.609 2381.35,523.029C2444.38,568.45 2509.57,729.141 2598.66,765.842C2598.66,765.842 2572,739.649 2570.42,676.814C2567.22,549.664 2527.28,495.146 2451.79,445.594C2386.46,402.705 2314.01,382.198 2274.46,429.636C2262.39,444.107 2252.38,467.422 2241.64,495.568Z" style="fill:url(#_Linear4);"/>
                <path d="M2393.16,405.198C2393.16,405.198 2446.48,411.573 2498.78,467.556C2551.07,523.539 2578.98,551.368 2588.62,643.144C2598.27,734.92 2592.94,818.815 2609.33,888.999C2625.72,959.182 2615.08,1135.51 2587.52,1213.32C2559.95,1291.14 2477.66,1398.75 2435.09,1399.65C2435.09,1399.65 2572.56,1384.25 2622.95,1234.53C2673.33,1084.81 2699.24,984.087 2689.41,874.213C2679.59,764.339 2682.52,729.799 2664.86,640.956C2647.19,552.113 2598.2,391.674 2393.16,405.198Z" style="fill:url(#_Linear5);"/>
                <path d="M2250.73,414.098C2250.73,414.098 1991.8,316.852 1891.19,419.112C1891.19,419.112 1895.34,385.514 1943.75,336.807C1992.16,288.1 2208.66,293.154 2250.73,414.098Z" style="fill:url(#_Linear6);"/>
                <g transform="matrix(1.15938,0,0,1,-320.39,9.88054)">
                    <path d="M2240.24,389.391C2240.24,389.391 2148.31,222.285 1970.93,292.782C1970.93,292.782 1991.44,227.123 2082.54,205.078C2173.64,183.033 2434.01,229.188 2425.59,376.755C2425.59,376.755 2339.76,323.708 2240.24,389.391Z" style="fill:url(#_Linear7);"/>
                </g>
                <path d="M2462.49,287.173C2462.49,287.173 2310.67,157.009 2114.4,185.982C2114.4,185.982 2151.75,159.164 2210.8,158.167C2269.84,157.169 2423.89,166.704 2462.49,287.173Z" style="fill:url(#_Linear8);"/>
            </g>
            <g transform="matrix(12.3461,0,0,12.3461,-2542.67,-4239.62)">
                <g transform="matrix(1.03289,0,0,1.06734,-11.2652,-28.0217)">
                    <path d="M358.751,422.972C358.751,422.972 353.407,421.276 348.069,422.18C342.73,423.085 336.508,424.986 337.482,422.956C338.456,420.927 339.276,418.774 343.798,418.557C348.319,418.341 352.978,418.472 355.536,419.875C358.094,421.278 360.417,423.265 358.751,422.972Z" style="fill:rgb(83,63,46);fill-opacity:0.44;"/>
                </g>
                <g transform="matrix(0.123194,0.00190112,-0.00217706,0.126366,139.306,294.931)">
                    <g transform="matrix(-0.953666,-0.00352214,-0.00307115,0.824032,3300.17,403.623)">
                        <ellipse cx="1676.21" cy="806.849" rx="30.607" ry="34.777" style="fill:rgb(88,83,77);"/>
                    </g>
                    <g transform="matrix(-1.00213,-0.00370112,-0.00373491,1.00213,3392.52,281.1)">
                        <ellipse cx="1704.32" cy="786.164" rx="8.833" ry="8.645" style="fill:white;"/>
                    </g>
                </g>
            </g>
            <g transform="matrix(-12.3461,0,0,12.3461,5600.74,-4243.46)">
                <g transform="matrix(1.03289,0,0,1.06734,-11.2652,-28.0217)">
                    <path d="M358.751,422.972C358.751,422.972 353.407,421.276 348.069,422.18C342.73,423.085 336.508,424.986 337.482,422.956C338.456,420.927 339.276,418.774 343.798,418.557C348.319,418.341 352.978,418.472 355.536,419.875C358.094,421.278 360.417,423.265 358.751,422.972Z" style="fill:rgb(83,63,46);fill-opacity:0.44;"/>
                </g>
                <g transform="matrix(0.123194,0.00190112,-0.00217706,0.126366,139.306,294.7)">
                    <g transform="matrix(-0.953666,-0.00352214,-0.00307115,0.824032,3300.17,403.623)">
                        <ellipse cx="1676.21" cy="806.849" rx="30.607" ry="34.777" style="fill:rgb(88,83,77);"/>
                    </g>
                    <g transform="matrix(-1.00213,-0.00370112,-0.00373491,1.00213,3392.52,281.1)">
                        <ellipse cx="1704.32" cy="786.164" rx="8.833" ry="8.645" style="fill:white;"/>
                    </g>
                </g>
            </g>
        </g>
        <g>
            <g>
                <g transform="matrix(2.75348,0,0,2.75348,106.931,26.1594)">
                    <path d="M153.898,805.16C186.424,758.964 243.14,744.625 312.16,722.915C376.62,702.639 433.595,687.232 433.595,687.232L506.366,663.774L506.349,658.282L579.315,676.335C579.315,676.335 589.362,682.705 614.232,693.842C635.219,703.241 666.948,715.924 710.219,732.172C767.363,753.629 815.953,770.365 846.907,802.442C767.26,907.383 641.171,975.217 499.363,975.217C358.782,975.217 233.649,908.552 153.898,805.16Z" style="fill:rgb(59,85,64);"/>
                </g>
                <g transform="matrix(2.70205,0,0,2.88696,-1345.87,-2425.05)">
                    <path d="M1004.97,1400.38C1004.97,1400.38 986.349,1496.64 969.172,1503.62C969.172,1503.62 1186.1,1515.38 1163.93,1502.95C1163.93,1502.95 1134.73,1441.55 1137.06,1399.16L1004.97,1400.38Z" style="fill:rgb(255,205,176);"/>
                </g>
                <g transform="matrix(2.75348,0,0,2.75348,106.931,26.1594)">
                    <path d="M452.376,608.266C447.054,632.073 438.925,663.615 430.467,678.398C457.471,685.759 520.54,691.76 593.419,622.221C591.541,614.154 589.997,605.908 589.057,597.862C574.307,596.527 552.477,595.933 522.741,598.484C491.332,601.178 469.288,603.507 452.376,608.266Z" style="fill:rgb(234,164,123);"/>
                </g>
                <path d="M1207.21,1944.98C1207.21,1944.98 1280.1,1912.26 1312.33,1815.85C1312.33,1815.85 1547.3,1946.93 1768.65,1814.93C1787.68,1864.74 1805.87,1916.94 1848.78,1961.59C1848.78,1961.59 1556.18,2153.9 1207.21,1944.98Z" style="fill:rgb(44,68,49);"/>
            </g>
            <g transform="matrix(1.29509,0,0,1.29509,-1364.05,-110.77)">
                <g transform="matrix(1.87878,-0.142768,0.13118,1.85534,152.124,-1007.61)">
                    <path d="M840.474,1075.91C840.474,1075.91 814.34,1071.26 796.024,1083.57C782.028,1092.97 765.689,1121.62 782.456,1160.76C797.947,1196.91 818.898,1246.45 860.04,1245.3L857.429,1116.94C857.429,1116.94 864.48,1084.16 840.474,1075.91Z" style="fill:rgb(250,190,156);"/>
                </g>
                <g transform="matrix(-1.87878,-0.142768,-0.13118,1.85534,4285.87,-1007.61)">
                    <path d="M840.474,1075.91C840.474,1075.91 814.34,1071.26 796.024,1083.57C782.028,1092.97 765.689,1121.62 782.456,1160.76C797.947,1196.91 818.898,1246.45 860.04,1245.3L857.429,1116.94C857.429,1116.94 864.48,1084.16 840.474,1075.91Z" style="fill:rgb(250,190,156);"/>
                </g>
                <g transform="matrix(2.07925,-0.447013,0.47892,2.34479,-411.788,-1325.2)">
                    <path d="M850.105,1115.9C850.105,1115.9 796.515,1103.23 799.612,1148.17C799.612,1148.17 800.403,1135.02 814.211,1129.96C814.211,1129.96 811.437,1185.3 842.165,1197.91C842.165,1197.91 818.666,1190.99 824.689,1128.78C824.689,1128.78 838.587,1123.53 854.932,1131.13L850.105,1115.9Z" style="fill:rgb(234,164,123);"/>
                </g>
                <g transform="matrix(-2.07925,-0.447013,-0.47892,2.34479,4849.79,-1325.2)">
                    <path d="M850.105,1115.9C850.105,1115.9 796.515,1103.23 799.612,1148.17C799.612,1148.17 800.403,1135.02 814.211,1129.96C814.211,1129.96 811.437,1185.3 842.165,1197.91C842.165,1197.91 818.666,1190.99 824.689,1128.78C824.689,1128.78 838.587,1123.53 854.932,1131.13L850.105,1115.9Z" style="fill:rgb(234,164,123);"/>
                </g>
                <path d="M1897.59,1149.54C1897.59,1149.54 1864.57,1147.64 1838.15,1173.07C1825.33,1185.4 1814.37,1204.12 1809.12,1232.28C1805.41,1254.01 1809.44,1275.17 1819.1,1293.43C1825.64,1305.78 1834.83,1316.78 1845.85,1325.6C1856.7,1334.28 1869.38,1340.85 1882.97,1344.7C1902.36,1350.18 1923.62,1350.23 1944.58,1343.18C1954.68,1339.64 1964.74,1334.56 1974.39,1327.42C1982.67,1321.3 1990.68,1313.81 1998.24,1304.69C2000.2,1302.57 2000.06,1299.27 1997.94,1297.31C1995.83,1295.36 1992.52,1295.49 1990.57,1297.61C1982.83,1305.15 1974.84,1311.15 1966.77,1315.94C1957.83,1321.25 1948.78,1324.84 1939.78,1327.04C1922.19,1331.6 1904.85,1330.07 1889.17,1324.75C1878.36,1321.08 1868.43,1315.39 1859.67,1308.35C1850.83,1301.25 1843.2,1292.76 1837.44,1283.11C1828.89,1268.79 1824.06,1252.2 1825.73,1234.48C1827.71,1209.35 1835.57,1192 1845.56,1179.95C1867.15,1153.91 1897.59,1152.15 1897.59,1152.15C1898.31,1152.15 1898.89,1151.57 1898.89,1150.85C1898.9,1150.13 1898.31,1149.54 1897.59,1149.54Z" style="fill:rgb(255,216,162);"/>
                <g transform="matrix(-1,0,0,1,4445.02,0)">
                    <path d="M1897.59,1152.15C1897.59,1152.15 1867.15,1153.91 1845.56,1179.95C1835.57,1192 1827.71,1209.35 1825.73,1234.48C1823.39,1258.18 1832.62,1279.83 1847.4,1296.66C1857.26,1307.89 1869.68,1316.98 1883.78,1322.72C1900.81,1329.64 1920.01,1331.98 1939.64,1327.08C1956.81,1322.79 1974.24,1313.6 1990.57,1297.61C1992.52,1295.49 1995.83,1295.36 1997.94,1297.31C2000.06,1299.27 2000.2,1302.57 1998.24,1304.69C1973.88,1333.77 1945.02,1346.78 1917.35,1348.54C1903.1,1349.44 1889.12,1347.2 1876.2,1342.51C1858.49,1336.1 1842.62,1325.05 1830.8,1310.84C1813.09,1289.52 1804.28,1261.36 1809.12,1232.28C1814.37,1204.12 1825.33,1185.4 1838.15,1173.07C1864.57,1147.64 1897.59,1149.54 1897.59,1149.54C1898.31,1149.54 1898.9,1150.13 1898.89,1150.85C1898.89,1151.57 1898.31,1152.15 1897.59,1152.15Z" style="fill:rgb(255,216,162);"/>
                </g>
                <path d="M2228.49,399.718C2243.04,400.126 2383.89,405.335 2470.88,455.758C2562.68,508.976 2613.28,595.868 2603.25,773.007C2603.25,773.007 2541.76,1200 2526,1271C2510.24,1342 2454.77,1384.31 2403.53,1414.74C2352.44,1445.07 2324.06,1490.12 2223.47,1486.96C2126.35,1483.91 2101.98,1443.32 2052.21,1413.77C2000.98,1383.35 1945.5,1341.04 1929.75,1270.04C1913.99,1199.03 1852.49,772.044 1852.49,772.044C1842.47,594.905 1893.06,508.014 1984.87,454.796C2076.67,401.578 2228.48,398.725 2228.48,398.725L2228.49,399.718Z" style="fill:rgb(255,205,176);"/>
                <g transform="matrix(-1,0,0,1,4426.1,3.49594)">
                    <g transform="matrix(1.21729,0.240916,-0.161121,0.81411,104.754,-136.217)">
                        <path d="M1837.34,940.699L1824.5,1029.57L1866.03,1050.78L1841.79,1018.13L1837.34,940.699Z" style="fill:rgb(234,164,123);"/>
                    </g>
                    <g transform="matrix(-0.991964,-0.126521,-0.126521,0.991964,4552.03,302.91)">
                        <path d="M2265.37,1137.2C2265.37,1137.2 2270.78,1142.21 2271.24,1149.87C2271.46,1153.59 2270.38,1157.9 2266.85,1162.65C2263.95,1166.67 2259.87,1168.72 2255.59,1169.49C2251.12,1170.3 2246.39,1169.56 2242.17,1167.61C2234.05,1163.87 2227.83,1155.71 2229.96,1143.95C2230.16,1143.1 2229.64,1142.24 2228.79,1142.04C2227.94,1141.83 2227.08,1142.35 2226.87,1143.2C2222.49,1157.37 2229.28,1168.57 2238.98,1173.95C2242.24,1175.75 2245.88,1176.85 2249.54,1177.14C2258.11,1177.83 2266.78,1174.28 2271.92,1166.03C2275.74,1159.6 2276.5,1154 2275.7,1149.35C2274.14,1140.35 2267.01,1135.17 2267.01,1135.17C2266.45,1134.72 2265.63,1134.8 2265.17,1135.36C2264.72,1135.92 2264.81,1136.75 2265.37,1137.2Z" style="fill:rgb(245,235,227);"/>
                    </g>
                </g>
                <g transform="matrix(2.55931,-0.059478,0.0581167,2.50074,-4469.22,-103.482)">
                    <g transform="matrix(0.285959,0.00651054,-0.00378267,0.174019,2200.62,312.252)">
                        <path d="M1608.32,1595.64C1608.32,1595.64 1580.8,1623.86 1522.46,1612.38C1482.06,1604.43 1450.46,1602.96 1427.5,1614.49C1427.5,1614.49 1407.72,1602.43 1377.42,1604.52C1347.12,1606.62 1290.97,1615.52 1245.09,1587.91L1272.85,1623.46C1272.85,1623.46 1324.08,1739.44 1416.64,1741.67C1509.2,1743.9 1552,1676.65 1569.83,1635.81C1569.83,1635.81 1583.08,1615.58 1608.32,1595.64Z" style="fill:rgb(207,110,86);"/>
                    </g>
                    <g transform="matrix(0.830275,0.0197474,-0.0192955,0.849723,2186.97,135.675)">
                        <path d="M451.688,533.058C460.026,537.211 515.261,562.526 572.104,535.013C572.756,534.784 573.313,534.564 573.776,534.367C574.157,534.175 574.548,533.983 574.947,533.791L574.918,533.841C574.639,533.981 574.259,534.161 573.776,534.367C566.206,538.17 562.245,541.772 562.245,541.772C556.111,550.142 541.385,563.93 509.506,563.504C477.628,563.079 459.961,539.345 459.961,539.345L451.688,533.058Z" style="fill:rgb(234,144,122);"/>
                    </g>
                </g>
                <path d="M2235.52,496.722C2235.52,496.722 2164.14,463.424 2105.28,499.418C2046.43,535.413 2013.91,598.387 1990.21,721.594C1966.76,843.498 1925.28,982.073 1881.37,1021.85C1837.46,1061.62 1827.1,1167.15 1886.81,1232.98C1941.28,1293.02 1941.58,1444.67 1873.39,1523.61C1842.87,1558.94 1814.09,1573.39 1751.02,1549.16C1751.02,1549.16 1885.27,1530.76 1761.46,1354.58C1682.29,1241.91 1652.13,1071.16 1676.61,929.572C1701.08,787.98 1734.85,604.155 1826.71,487.412C1918.57,370.669 2057.15,323.446 2173.04,340.831C2173.04,340.831 2266.25,326.697 2393.29,356.004C2520.33,385.31 2571.26,433.019 2623.91,499.49C2676.57,565.961 2720.34,682.187 2716.05,763.622C2711.77,845.058 2722.85,881.876 2744.08,929.059C2765.31,976.242 2774.38,1220.89 2710.19,1351.09C2646,1481.28 2635.31,1508.12 2684.9,1553.69C2684.9,1553.69 2602.24,1519.72 2591.34,1454.59C2580.81,1391.67 2590.47,1369.06 2636.03,1265.86C2672.95,1182.25 2678.52,1148.52 2669.64,1076.98C2669.64,1076.98 2664.5,1283.24 2538.44,1368.64C2477.87,1409.68 2431.74,1399.97 2431.74,1399.97C2431.74,1399.97 2523.89,1392.88 2572.43,1257.47C2622.19,1118.7 2619.97,1003.81 2617.79,940.33C2617.79,940.33 2590.9,926.281 2568.92,990.798C2575.81,910.402 2571.82,779.925 2564.13,746.457C2564.13,746.457 2458.87,587.886 2403.91,542.14C2336.49,486.022 2329.96,479.254 2235.52,496.722Z" style="fill:rgb(83,63,46);"/>
                <g transform="matrix(1.18051,0,0,1,-353.673,1.44588)">
                    <path d="M1874.55,487.658C1874.55,487.658 1878.62,402.715 1926.69,324.92C1974.76,247.126 1991.56,229.948 2036.66,205.167C2081.76,180.387 2088.92,145.214 2182.27,148.252C2275.61,151.291 2445.96,221.006 2415.7,413.395C2415.7,413.395 1973.03,414.146 1874.55,487.658Z" style="fill:rgb(83,63,46);"/>
                </g>
                <path d="M2698.91,765.719C2698.91,765.719 2702.96,870.617 2726.59,926.001C2750.22,981.385 2760.04,1076.46 2748.83,1180.88C2737.63,1285.31 2695.44,1351.91 2667,1399.63C2638.56,1447.34 2625.77,1502.79 2674.99,1541.81C2674.99,1541.81 2599.24,1506.21 2595.81,1433.54C2592.39,1360.87 2630.04,1305.34 2658.65,1232.36C2687.26,1159.37 2697.76,1102.88 2693.77,994.7C2689.78,886.515 2671.94,833.823 2698.91,765.719Z" style="fill:url(#_Linear9);"/>
                <path d="M2241.09,494.135C2241.09,494.135 2165.11,460.129 2106.07,501.617C2047.04,543.106 2011.63,609.605 1991.71,711.4C1966.09,842.286 1892.73,895.666 1847.19,949.216C1801.65,1002.77 1774,1095.43 1832.59,1180.45C1891.17,1265.47 1927.99,1298.16 1925.15,1384.71C1922.52,1464.85 1879.44,1515.72 1879.44,1515.72C1879.44,1515.72 1949.91,1421.18 1872.69,1330.78C1802.46,1248.56 1738.72,1191.2 1739.02,1097.61C1739.39,981.463 1761.01,927.575 1814.27,840.211C1867.53,752.847 1889.11,716.501 1908.22,627.24C1927.33,537.98 2021.83,375.83 2241.09,494.135Z" style="fill:url(#_Linear10);"/>
                <path d="M2213.41,452.344C2213.41,452.344 2112.28,421.699 2040.03,443.645C1967.77,465.591 1875.7,527.149 1853.66,618.235C1831.63,709.32 1789.58,809.278 1757.99,877.291C1726.4,945.303 1660.78,1069.97 1743.34,1219.38C1825.9,1368.79 1931.58,1535.73 1756.65,1552.64C1756.65,1552.64 1886.03,1520.02 1809.37,1410.87C1729.06,1296.52 1649.68,1202.74 1671.47,964.529C1678.04,892.712 1694.63,810.061 1709.74,745.678C1744.75,596.508 1797.21,488.625 1880.38,434.678C1999.46,357.448 2154.35,378.895 2213.41,452.344Z" style="fill:url(#_Linear11);"/>
                <path d="M2241.64,495.568C2241.64,495.568 2318.32,477.609 2381.35,523.029C2444.38,568.45 2509.57,729.141 2598.66,765.842C2598.66,765.842 2572,739.649 2570.42,676.814C2567.22,549.664 2527.28,495.146 2451.79,445.594C2386.46,402.705 2314.01,382.198 2274.46,429.636C2262.39,444.107 2252.38,467.422 2241.64,495.568Z" style="fill:url(#_Linear12);"/>
                <path d="M2393.16,405.198C2393.16,405.198 2446.48,411.573 2498.78,467.556C2551.07,523.539 2578.98,551.368 2588.62,643.144C2598.27,734.92 2592.94,818.815 2609.33,888.999C2625.72,959.182 2615.08,1135.51 2587.52,1213.32C2559.95,1291.14 2477.66,1398.75 2435.09,1399.65C2435.09,1399.65 2572.56,1384.25 2622.95,1234.53C2673.33,1084.81 2699.24,984.087 2689.41,874.213C2679.59,764.339 2682.52,729.799 2664.86,640.956C2647.19,552.113 2598.2,391.674 2393.16,405.198Z" style="fill:url(#_Linear13);"/>
                <path d="M2250.73,414.098C2250.73,414.098 1991.8,316.852 1891.19,419.112C1891.19,419.112 1895.34,385.514 1943.75,336.807C1992.16,288.1 2208.66,293.154 2250.73,414.098Z" style="fill:url(#_Linear14);"/>
                <g transform="matrix(1.15938,0,0,1,-320.39,9.88054)">
                    <path d="M2240.24,389.391C2240.24,389.391 2148.31,222.285 1970.93,292.782C1970.93,292.782 1991.44,227.123 2082.54,205.078C2173.64,183.033 2434.01,229.188 2425.59,376.755C2425.59,376.755 2339.76,323.708 2240.24,389.391Z" style="fill:url(#_Linear15);"/>
                </g>
                <path d="M2462.49,287.173C2462.49,287.173 2310.67,157.009 2114.4,185.982C2114.4,185.982 2151.75,159.164 2210.8,158.167C2269.84,157.169 2423.89,166.704 2462.49,287.173Z" style="fill:url(#_Linear16);"/>
            </g>
            <g transform="matrix(12.3461,0,0,12.3461,-2542.67,-4239.62)">
                <g transform="matrix(1.03289,0,0,1.06734,-11.2652,-28.0217)">
                    <path d="M358.751,422.972C358.751,422.972 353.407,421.276 348.069,422.18C342.73,423.085 336.508,424.986 337.482,422.956C338.456,420.927 339.276,418.774 343.798,418.557C348.319,418.341 352.978,418.472 355.536,419.875C358.094,421.278 360.417,423.265 358.751,422.972Z" style="fill:rgb(83,63,46);fill-opacity:0.44;"/>
                </g>
                <g transform="matrix(0.123194,0.00190112,-0.00217706,0.126366,139.306,294.931)">
                    <g transform="matrix(-0.953666,-0.00352214,-0.00307115,0.824032,3300.17,403.623)">
                        <ellipse cx="1676.21" cy="806.849" rx="30.607" ry="34.777" style="fill:rgb(88,83,77);"/>
                    </g>
                    <g transform="matrix(-1.00213,-0.00370112,-0.00373491,1.00213,3392.52,281.1)">
                        <ellipse cx="1704.32" cy="786.164" rx="8.833" ry="8.645" style="fill:white;"/>
                    </g>
                </g>
            </g>
            <g transform="matrix(-12.3461,0,0,12.3461,5600.74,-4243.46)">
                <g transform="matrix(1.03289,0,0,1.06734,-11.2652,-28.0217)">
                    <path d="M358.751,422.972C358.751,422.972 353.407,421.276 348.069,422.18C342.73,423.085 336.508,424.986 337.482,422.956C338.456,420.927 339.276,418.774 343.798,418.557C348.319,418.341 352.978,418.472 355.536,419.875C358.094,421.278 360.417,423.265 358.751,422.972Z" style="fill:rgb(83,63,46);fill-opacity:0.44;"/>
                </g>
                <g transform="matrix(0.123194,0.00190112,-0.00217706,0.126366,139.306,294.7)">
                    <g transform="matrix(-0.953666,-0.00352214,-0.00307115,0.824032,3300.17,403.623)">
                        <ellipse cx="1676.21" cy="806.849" rx="30.607" ry="34.777" style="fill:rgb(88,83,77);"/>
                    </g>
                    <g transform="matrix(-1.00213,-0.00370112,-0.00373491,1.00213,3392.52,281.1)">
                        <ellipse cx="1704.32" cy="786.164" rx="8.833" ry="8.645" style="fill:white;"/>
                    </g>
                </g>
            </g>
        </g>
    </g>
    <defs>
        <linearGradient id="_Linear1" x1="0" y1="0" x2="1" y2="0" gradientUnits="userSpaceOnUse" gradientTransform="matrix(1.50864,-353.84,353.84,1.50864,2686.85,1272.7)"><stop offset="0" style="stop-color:rgb(129,102,79);stop-opacity:1"/><stop offset="1" style="stop-color:rgb(83,63,46);stop-opacity:1"/></linearGradient>
        <linearGradient id="_Linear2" x1="0" y1="0" x2="1" y2="0" gradientUnits="userSpaceOnUse" gradientTransform="matrix(464.202,-673.605,673.605,464.202,1776.48,1126.48)"><stop offset="0" style="stop-color:rgb(129,102,79);stop-opacity:1"/><stop offset="0.62" style="stop-color:rgb(114,89,68);stop-opacity:1"/><stop offset="1" style="stop-color:rgb(83,63,46);stop-opacity:1"/></linearGradient>
        <linearGradient id="_Linear3" x1="0" y1="0" x2="1" y2="0" gradientUnits="userSpaceOnUse" gradientTransform="matrix(414.646,-406.528,406.528,414.646,1762.99,819.884)"><stop offset="0" style="stop-color:rgb(129,102,79);stop-opacity:1"/><stop offset="0.72" style="stop-color:rgb(106,83,63);stop-opacity:1"/><stop offset="1" style="stop-color:rgb(83,63,46);stop-opacity:1"/></linearGradient>
        <linearGradient id="_Linear4" x1="0" y1="0" x2="1" y2="0" gradientUnits="userSpaceOnUse" gradientTransform="matrix(-279.484,-161.069,161.069,-279.484,2500.21,641.713)"><stop offset="0" style="stop-color:rgb(129,102,79);stop-opacity:1"/><stop offset="1" style="stop-color:rgb(83,63,46);stop-opacity:1"/></linearGradient>
        <linearGradient id="_Linear5" x1="0" y1="0" x2="1" y2="0" gradientUnits="userSpaceOnUse" gradientTransform="matrix(-190.418,-192.915,192.915,-190.418,2599.07,608.558)"><stop offset="0" style="stop-color:rgb(129,102,79);stop-opacity:1"/><stop offset="1" style="stop-color:rgb(83,63,46);stop-opacity:1"/></linearGradient>
        <linearGradient id="_Linear6" x1="0" y1="0" x2="1" y2="0" gradientUnits="userSpaceOnUse" gradientTransform="matrix(467.537,33.664,-33.664,467.537,1920.15,379.835)"><stop offset="0" style="stop-color:rgb(129,102,79);stop-opacity:1"/><stop offset="1" style="stop-color:rgb(83,63,46);stop-opacity:1"/></linearGradient>
        <linearGradient id="_Linear7" x1="0" y1="0" x2="1" y2="0" gradientUnits="userSpaceOnUse" gradientTransform="matrix(45.0957,227.211,-195.977,52.283,2169.02,221.655)"><stop offset="0" style="stop-color:rgb(129,102,79);stop-opacity:1"/><stop offset="1" style="stop-color:rgb(83,63,46);stop-opacity:1"/></linearGradient>
        <linearGradient id="_Linear8" x1="0" y1="0" x2="1" y2="0" gradientUnits="userSpaceOnUse" gradientTransform="matrix(212.535,80.036,-80.036,212.535,2283.48,179.871)"><stop offset="0" style="stop-color:rgb(129,102,79);stop-opacity:1"/><stop offset="1" style="stop-color:rgb(83,63,46);stop-opacity:1"/></linearGradient>
        <linearGradient id="_Linear9" x1="0" y1="0" x2="1" y2="0" gradientUnits="userSpaceOnUse" gradientTransform="matrix(1.50864,-353.84,353.84,1.50864,2686.85,1272.7)"><stop offset="0" style="stop-color:rgb(129,102,79);stop-opacity:1"/><stop offset="1" style="stop-color:rgb(83,63,46);stop-opacity:1"/></linearGradient>
        <linearGradient id="_Linear10" x1="0" y1="0" x2="1" y2="0" gradientUnits="userSpaceOnUse" gradientTransform="matrix(464.202,-673.605,673.605,464.202,1776.48,1126.48)"><stop offset="0" style="stop-color:rgb(129,102,79);stop-opacity:1"/><stop offset="0.62" style="stop-color:rgb(114,89,68);stop-opacity:1"/><stop offset="1" style="stop-color:rgb(83,63,46);stop-opacity:1"/></linearGradient>
        <linearGradient id="_Linear11" x1="0" y1="0" x2="1" y2="0" gradientUnits="userSpaceOnUse" gradientTransform="matrix(414.646,-406.528,406.528,414.646,1762.99,819.884)"><stop offset="0" style="stop-color:rgb(129,102,79);stop-opacity:1"/><stop offset="0.72" style="stop-color:rgb(106,83,63);stop-opacity:1"/><stop offset="1" style="stop-color:rgb(83,63,46);stop-opacity:1"/></linearGradient>
        <linearGradient id="_Linear12" x1="0" y1="0" x2="1" y2="0" gradientUnits="userSpaceOnUse" gradientTransform="matrix(-279.484,-161.069,161.069,-279.484,2500.21,641.713)"><stop offset="0" style="stop-color:rgb(129,102,79);stop-opacity:1"/><stop offset="1" style="stop-color:rgb(83,63,46);stop-opacity:1"/></linearGradient>
        <linearGradient id="_Linear13" x1="0" y1="0" x2="1" y2="0" gradientUnits="userSpaceOnUse" gradientTransform="matrix(-190.418,-192.915,192.915,-190.418,2599.07,608.558)"><stop offset="0" style="stop-color:rgb(129,102,79);stop-opacity:1"/><stop offset="1" style="stop-color:rgb(83,63,46);stop-opacity:1"/></linearGradient>
        <linearGradient id="_Linear14" x1="0" y1="0" x2="1" y2="0" gradientUnits="userSpaceOnUse" gradientTransform="matrix(467.537,33.664,-33.664,467.537,1920.15,379.835)"><stop offset="0" style="stop-color:rgb(129,102,79);stop-opacity:1"/><stop offset="1" style="stop-color:rgb(83,63,46);stop-opacity:1"/></linearGradient>
        <linearGradient id="_Linear15" x1="0" y1="0" x2="1" y2="0" gradientUnits="userSpaceOnUse" gradientTransform="matrix(45.0957,227.211,-195.977,52.283,2169.02,221.655)"><stop offset="0" style="stop-color:rgb(129,102,79);stop-opacity:1"/><stop offset="1" style="stop-color:rgb(83,63,46);stop-opacity:1"/></linearGradient>
        <linearGradient id="_Linear16" x1="0" y1="0" x2="1" y2="0" gradientUnits="userSpaceOnUse" gradientTransform="matrix(212.535,80.036,-80.036,212.535,2283.48,179.871)"><stop offset="0" style="stop-color:rgb(129,102,79);stop-opacity:1"/><stop offset="1" style="stop-color:rgb(83,63,46);stop-opacity:1"/></linearGradient>
    </defs>
</svg>
